<?xml version="1.0" encoding="UTF-8"?><svg id="Calque_1" xmlns="http://www.w3.org/2000/svg" viewBox="0 0 132 26.5"><defs><style>.cls-1{fill:#c7d5e0;}.cls-2{fill:#2a475e;}</style></defs><g><path class="cls-2" d="M1,10.11v-.28C1,6.42,3.47,3.51,6.83,2.95c2.18-.37,4.49,.35,6.08,1.95l.59,.58,.54-.58c1.64-1.59,3.9-2.32,6.13-1.95,3.36,.56,5.83,3.47,5.83,6.88v.28c0,2.03-.84,3.96-2.32,5.35l-8.84,8.25c-.09,.09-.19,.17-.3,.24-.82,.47-1.77,.33-2.39-.25L3.32,15.46c-1.48-1.38-2.32-3.32-2.32-5.35h0Z"/><path class="cls-1" d="M20.9,9.68c0,.73-.59,1.32-1.32,1.32s-1.32-.59-1.32-1.32,.59-1.32,1.32-1.32,1.32,.59,1.32,1.32Zm1.26,0c0,1.42-1.16,2.59-2.61,2.58l-2.27,1.69h0c0,1.08-.88,1.96-1.96,1.97-.98,0-1.78-.69-1.96-1.6l-7.08-2.98c-.31,.2-.67,.32-1.07,.33-1.1,0-1.99-.88-2-1.96-.01-1.1,.88-2,1.98-2,.96,0,1.76,.68,1.94,1.59l7.09,2.98c.33-.21,.71-.33,1.13-.32l1.66-2.33c.03-1.4,1.17-2.53,2.58-2.53s2.58,1.15,2.58,2.58Zm-16.43,1.44l-.97-.41c-.57-.24-.83-.89-.59-1.45,.24-.57,.89-.83,1.46-.59l.96,.4c-.24-.54-.78-.91-1.4-.91-.87,0-1.54,.71-1.53,1.55,0,.83,.68,1.52,1.55,1.52,.19,0,.37-.04,.54-.1Zm11.1,2.8c0-.84-.7-1.52-1.53-1.52-.18,0-.36,.03-.54,.1l.97,.41c.57,.24,.83,.89,.59,1.45-.24,.57-.89,.83-1.46,.59l-.97-.41c.24,.54,.78,.92,1.42,.92,.85,0,1.53-.7,1.52-1.55Zm4.51-4.25c0-.97-.79-1.75-1.75-1.75s-1.75,.79-1.75,1.75,.79,1.75,1.75,1.75,1.75-.79,1.75-1.75Z"/></g><g><path class="cls-1" d="M31.48,17.34h-2.06V7.54h2.06v9.8Z"/><path class="cls-1" d="M43.66,10.44c.44,.44,.66,1.05,.66,1.83v5.07h-2v-4.8c0-.34-.08-.59-.24-.76-.16-.17-.39-.26-.69-.26-.63,0-1.13,.36-1.5,1.09v4.73h-2.02v-4.82c0-.35-.08-.6-.25-.76-.17-.16-.39-.25-.67-.25-.31,0-.59,.1-.85,.29-.26,.19-.48,.46-.66,.81v4.73h-2v-7.34h1.53l.2,1.01h.04c.27-.43,.59-.74,.95-.94,.36-.2,.77-.29,1.24-.29,1.07,0,1.8,.43,2.18,1.29,.55-.86,1.33-1.29,2.34-1.29,.73,0,1.31,.22,1.76,.67Z"/><path class="cls-1" d="M51.48,10.2c.46,.28,.83,.7,1.11,1.26,.28,.56,.42,1.22,.42,2,0,.84-.15,1.57-.46,2.19-.31,.62-.73,1.09-1.25,1.42s-1.11,.49-1.76,.49c-.61,0-1.12-.12-1.53-.36v3.02h-1.96V10h1.39l.34,.88h.04c.3-.38,.62-.66,.96-.84s.74-.27,1.2-.27c.54,0,1.04,.14,1.5,.43Zm-2.79,1.53c-.23,.15-.46,.38-.67,.69v3.15c.16,.13,.33,.23,.52,.29,.19,.06,.41,.09,.66,.09,.52,0,.96-.21,1.3-.62,.35-.42,.52-.98,.52-1.69s-.14-1.24-.42-1.6c-.28-.35-.65-.53-1.11-.53-.3,0-.56,.08-.8,.22Z"/><path class="cls-1" d="M59.7,10.2c.57,.28,1.03,.72,1.38,1.3,.35,.58,.52,1.3,.52,2.16s-.17,1.58-.52,2.16-.81,1.02-1.38,1.3c-.57,.28-1.19,.43-1.86,.43s-1.29-.14-1.86-.43-1.03-.72-1.38-1.3-.52-1.3-.52-2.16,.17-1.58,.52-2.16c.35-.58,.81-1.02,1.38-1.3s1.19-.43,1.86-.43,1.29,.14,1.86,.43Zm-3.17,1.87c-.31,.37-.47,.91-.47,1.6s.16,1.22,.47,1.6c.31,.37,.75,.56,1.31,.56s1-.19,1.31-.57c.31-.38,.47-.91,.47-1.59s-.16-1.21-.47-1.59c-.31-.38-.75-.57-1.31-.57s-1,.19-1.31,.56Z"/><path class="cls-1" d="M63.05,10h1.51l.31,1.09h.04c.21-.48,.45-.81,.74-1.01,.29-.2,.62-.3,1.01-.3s.68,.08,.95,.24l-.35,1.76c-.25-.11-.49-.17-.71-.17-.34,0-.63,.12-.89,.36-.26,.24-.47,.62-.64,1.16v4.21h-1.97v-7.34Z"/><path class="cls-1" d="M69.94,17.08c-.34-.32-.5-.82-.5-1.5v-3.92h-1.11v-1.67h1.11v-.85l.85-1.05h1.12v1.9h1.79v1.67h-1.79v3.51c0,.41,.19,.62,.56,.62,.32,0,.63-.06,.95-.18l.47,1.39c-.6,.37-1.25,.56-1.96,.56-.66,0-1.16-.16-1.5-.48Z"/><path class="cls-2" d="M91.45,7.54l-3.07,9.8h-1.82l-2.03-6.68-2.03,6.68h-1.83l-3.07-9.8h2.2l1.9,6.99,2.09-6.99h1.6l2.06,6.94,1.9-6.94h2.1Z"/><path class="cls-2" d="M94.79,7.19c.23,.18,.34,.45,.34,.79s-.11,.61-.34,.78c-.23,.18-.51,.27-.83,.27s-.59-.09-.82-.27c-.23-.18-.34-.44-.34-.78s.11-.61,.34-.79c.23-.18,.5-.27,.82-.27s.6,.09,.83,.27Zm.15,10.14h-1.96v-7.34h1.96v7.34Z"/><path class="cls-2" d="M100.89,9.97c.45,.13,.83,.3,1.15,.52l-.57,1.34c-.26-.15-.57-.27-.93-.37s-.69-.15-.99-.15c-.33,0-.58,.06-.76,.18-.18,.12-.27,.28-.27,.49s.1,.38,.32,.49c.21,.11,.55,.23,1.01,.36,.5,.14,.9,.28,1.23,.42,.32,.14,.6,.36,.83,.66,.23,.3,.35,.69,.35,1.18,0,.77-.29,1.38-.86,1.81-.57,.43-1.31,.65-2.22,.65-.53,0-1.04-.07-1.51-.22-.48-.15-.87-.34-1.18-.56l.48-1.5c.3,.2,.63,.35,.99,.46,.36,.11,.72,.16,1.07,.16,.39,0,.7-.07,.92-.2,.22-.14,.34-.31,.34-.54s-.1-.38-.31-.49c-.21-.11-.54-.24-1.01-.39-.48-.15-.87-.3-1.19-.44s-.59-.36-.81-.65c-.22-.29-.34-.67-.34-1.13,0-.7,.26-1.25,.78-1.66,.52-.41,1.21-.61,2.09-.61,.49,0,.95,.07,1.4,.2Z"/><path class="cls-2" d="M105.61,10.9c.33-.39,.67-.68,1.04-.85,.36-.18,.78-.27,1.26-.27,.76,0,1.36,.22,1.81,.66,.45,.44,.67,1.1,.67,1.99v4.91h-1.96v-4.49c0-.44-.1-.76-.31-.95-.21-.2-.49-.29-.83-.29-.56,0-1.12,.37-1.67,1.11v4.63h-1.96V6.81h1.96v4.09Z"/><path class="cls-2" d="M114.06,17.34h-1.96V6.81h1.96v10.53Z"/><path class="cls-2" d="M117.75,7.19c.23,.18,.34,.45,.34,.79s-.12,.61-.34,.78-.51,.27-.83,.27-.59-.09-.82-.27c-.23-.18-.34-.44-.34-.78s.11-.61,.34-.79c.23-.18,.5-.27,.82-.27s.6,.09,.83,.27Zm.15,10.14h-1.96v-7.34h1.96v7.34Z"/><path class="cls-2" d="M123.85,9.97c.45,.13,.83,.3,1.15,.52l-.57,1.34c-.26-.15-.57-.27-.93-.37s-.69-.15-.99-.15c-.33,0-.58,.06-.76,.18s-.27,.28-.27,.49,.11,.38,.32,.49c.21,.11,.55,.23,1.01,.36,.5,.14,.9,.28,1.23,.42,.32,.14,.6,.36,.83,.66,.23,.3,.35,.69,.35,1.18,0,.77-.29,1.38-.86,1.81-.57,.43-1.31,.65-2.22,.65-.53,0-1.04-.07-1.51-.22s-.87-.34-1.18-.56l.48-1.5c.3,.2,.63,.35,.99,.46,.36,.11,.72,.16,1.07,.16,.39,0,.7-.07,.92-.2,.22-.14,.34-.31,.34-.54s-.1-.38-.31-.49c-.21-.11-.54-.24-1.01-.39-.48-.15-.87-.3-1.19-.44-.32-.14-.59-.36-.81-.65-.22-.29-.34-.67-.34-1.13,0-.7,.26-1.25,.78-1.66,.52-.41,1.22-.61,2.09-.61,.49,0,.95,.07,1.4,.2Z"/><path class="cls-2" d="M127.6,17.08c-.34-.32-.5-.82-.5-1.5v-3.92h-1.11v-1.67h1.11v-.85l.85-1.05h1.12v1.9h1.79v1.67h-1.79v3.51c0,.41,.19,.62,.56,.62,.32,0,.63-.06,.95-.18l.48,1.39c-.6,.37-1.25,.56-1.96,.56-.66,0-1.16-.16-1.5-.48Z"/></g></svg>